<svg width="1088" height="248" viewBox="0 0 1088 248" fill="none" xmlns="http://www.w3.org/2000/svg">
<path d="M142.666 72.5792L97.7536 185.497L36.0076 184.987L35.3408 71.5859L77.5124 72.3522L74.2525 150.649L101.369 72.2528L142.666 72.5792ZM137.347 98.9428L123.359 184.901L152.757 185.568L166.731 98.7868L137.347 98.9428ZM339.699 100.617L325.711 186.562L355.095 187.243L369.083 100.461L339.699 100.617ZM246.658 118.198L238.982 167.108C234.922 189.101 204.709 186.377 204.709 186.377L163.841 185.639L177.814 98.7584L231.914 98.9003C251.504 99.4962 246.658 118.198 246.658 118.198ZM210.932 113.43L204.501 113.26L196.337 169.989C196.337 169.989 206.531 172.528 210.888 162.766L217.245 120.411C217.26 120.425 218.163 113.09 210.932 113.43ZM322.155 154.324L316.761 186.931L289.082 186.689L294.046 153.274C293.32 142.248 282.621 145.824 282.621 145.824L275.864 186.576L246.465 186.335L259.609 99.1415L314.139 99.1841C326.912 100.518 327.756 113.572 327.756 113.572L326.823 123.363C322.407 140.049 311.62 141.184 311.62 141.184C324.852 142.93 322.155 154.324 322.155 154.324ZM288.785 111.912L286.889 112.408L284.014 133.99C284.014 133.99 294.283 136.119 298.639 125.136C298.639 125.136 302.181 110.408 288.785 111.912Z" fill="black"/>
<path d="M333.935 74.4653L353.791 95.8343C353.791 95.8343 373.202 69.1018 417.241 26.4062C417.241 26.4062 389.635 39.8293 359.199 62.4186L352.413 56.2463L333.935 74.4653Z" fill="#F32735"/>
<path d="M355.703 199.289H35.4297V216.657H355.703V199.289Z" fill="#F32735"/>
<g clip-path="url(#clip0_153_2)">
<path d="M605.156 96.0977H636.377L664.4 133.279V96.7893H696.835V177.36H665.785L638.121 139.706V177.006H605.225L605.156 96.0977Z" fill="#1172B7"/>
<path fill-rule="evenodd" clip-rule="evenodd" d="M744.966 136.215C744.966 128.101 752.249 121.522 761.243 121.522C770.236 121.522 777.52 128.101 777.52 136.215C777.52 144.33 770.236 150.909 761.243 150.909C752.249 150.909 744.966 144.33 744.966 136.215ZM709.966 136.721C709.966 113.812 732.655 95.2383 760.662 95.2383C788.668 95.2383 811.357 113.812 811.357 136.721C811.357 159.631 788.651 178.222 760.662 178.222C732.672 178.222 709.966 159.648 709.966 136.721Z" fill="#1172B7"/>
<path d="M808.21 96.957H844.612L859.145 137.58L872.635 96.957H908.558L875.08 178.22H845.313L808.21 96.957Z" fill="#1172B7"/>
<path d="M911.362 96.957H973.547V119.107H944.84V126.564H970.88V147.449H944.84V156.98H974.248V178.22H911.328L911.362 96.957Z" fill="#1172B7"/>
<path d="M978.796 96.9602H1015.76L1025.88 112.565L1042.02 85.5898H1079.83L1046.57 134.142L1087.39 188.766H1049.02L1026.57 156.629L1014.36 178.223H975.65L1007.16 134.833L978.796 96.9602Z" fill="#1172B7"/>
<path d="M553.161 124.609L567.967 110.303C567.967 110.303 546.287 90.8351 581.15 83.3111C591.631 93.3656 599.017 107.182 599.017 122.483C599.017 127.207 598.436 130.986 597.273 135.355L574.276 116.224L560.427 129.872L587.801 154.857C577.098 168.622 559.709 178.205 540.32 178.205C522.248 178.205 506.09 170.444 495.318 158.231L506.381 145.46L512.262 149.661L514.554 147.079L499.747 135.675L496.806 138.257L501.388 142.879L491.266 152.883C485.333 144.178 481.674 133.6 481.674 122.466C481.691 91.7124 507.954 66.7617 540.354 66.7617C553.434 66.7617 566.172 70.9792 575.935 77.8284C575.935 77.8284 540.953 79.4479 533.772 94.7152C533.772 94.7152 525.496 97.077 523.205 101.261C523.205 101.261 528.437 111.265 520.931 115.566C520.931 115.566 511.664 117.287 508.398 114.267L501.85 121.69L524.829 141.9L531.805 135.017C531.805 135.017 527.565 127.173 535.088 120.712C535.088 120.712 540.645 116.191 553.178 124.592" fill="#1172B7"/>
<path fill-rule="evenodd" clip-rule="evenodd" d="M745.581 207.285C745.41 207.471 745.239 207.656 745.085 207.842C742.674 210.845 740.263 213.831 737.853 216.833C737.665 217.07 737.494 217.323 737.254 217.474C736.998 217.441 736.964 217.255 736.895 217.086C736.28 215.771 735.664 214.472 735.066 213.156C734.245 211.384 733.424 209.613 732.604 207.842C732.518 207.673 732.467 207.454 732.176 207.403C731.885 208.736 731.697 210.052 731.475 211.368C731.253 212.667 731.031 213.965 730.808 215.264C730.586 216.58 730.364 217.913 730.141 219.229C729.919 220.528 729.697 221.827 729.458 223.143C729.321 223.176 729.201 223.227 729.081 223.227C727.611 223.227 726.158 223.227 724.687 223.227C724.585 223.227 724.499 223.193 724.397 223.176C724.397 223.075 724.345 223.008 724.362 222.923C725.73 214.792 727.115 206.644 728.5 198.496C728.688 198.445 728.859 198.395 729.03 198.395C730.569 198.395 732.108 198.395 733.647 198.395C734.04 198.395 734.245 198.546 734.399 198.901C735.22 200.841 736.057 202.781 736.878 204.704C737.391 205.902 737.904 207.083 738.417 208.263C738.485 208.415 738.605 208.55 738.69 208.702C738.998 208.635 739.101 208.415 739.22 208.247C740.383 206.728 741.546 205.227 742.708 203.709C743.939 202.106 745.205 200.486 746.419 198.867C746.675 198.513 746.966 198.395 747.376 198.395C748.847 198.395 750.3 198.395 751.77 198.395C751.941 198.395 752.112 198.411 752.352 198.445C752.352 198.614 752.369 198.766 752.352 198.901C752.112 200.351 751.873 201.802 751.634 203.253C751.343 204.94 751.052 206.644 750.762 208.348C750.454 210.203 750.129 212.042 749.821 213.881C749.342 216.715 748.864 219.533 748.385 222.35C748.334 222.62 748.282 222.89 748.231 223.176C747.65 223.328 747.085 223.227 746.521 223.244C745.957 223.261 745.393 223.261 744.829 223.244C744.264 223.244 743.717 223.328 743.102 223.16C743.529 220.477 743.991 217.846 744.435 215.214C744.88 212.599 745.341 209.984 745.769 207.369C745.701 207.352 745.649 207.319 745.581 207.302V207.285Z" fill="#1172B7"/>
<path fill-rule="evenodd" clip-rule="evenodd" d="M815.922 204.301C815.922 204.436 815.922 204.537 815.922 204.621C814.571 212.668 813.203 220.732 811.835 228.83C811.254 228.965 810.69 228.88 810.143 228.897C809.578 228.897 809.014 228.897 808.45 228.897C807.886 228.897 807.321 228.931 806.74 228.863C806.774 227.902 807.014 227.008 807.15 226.114C807.287 225.236 807.441 224.359 807.595 223.499C807.749 222.605 807.903 221.727 808.039 220.816C807.715 220.8 807.612 221.002 807.475 221.12C806.928 221.559 806.381 222.031 805.8 222.453C804.722 223.212 803.509 223.549 802.192 223.566C801.406 223.566 800.619 223.566 799.833 223.33C797.849 222.757 796.516 221.491 795.695 219.652C795.096 218.269 794.908 216.818 795.011 215.334C795.131 213.579 795.49 211.875 796.225 210.273C797.097 208.366 798.328 206.747 800.055 205.532C801.918 204.216 804.021 203.677 806.313 203.947C807.629 204.098 808.689 204.689 809.561 205.65C809.818 205.92 810.057 206.224 810.365 206.545C810.45 206.393 810.536 206.291 810.553 206.19C810.655 205.6 810.758 204.992 810.878 204.368C811.049 204.335 811.185 204.267 811.322 204.267C812.724 204.267 814.143 204.267 815.563 204.267C815.682 204.267 815.802 204.301 815.956 204.318L815.922 204.301ZM803.936 219.028C804.876 219.079 805.731 218.758 806.518 218.252C807.219 217.797 807.766 217.206 808.228 216.532C808.929 215.469 809.305 214.305 809.407 213.039C809.493 212.162 809.356 211.319 809.014 210.526C808.433 209.176 807.39 208.485 805.902 208.417C804.859 208.366 803.936 208.704 803.081 209.261C800.893 210.695 799.798 213.849 800.397 216.228C800.893 218.151 802.448 219.129 803.953 219.045L803.936 219.028Z" fill="#1172B7"/>
<path fill-rule="evenodd" clip-rule="evenodd" d="M853.656 215.571C853.332 215.571 853.041 215.588 852.733 215.588C849.143 215.588 845.552 215.588 841.961 215.588C841.654 215.588 841.346 215.554 841.004 215.689C841.004 215.841 840.97 215.993 840.987 216.128C841.141 218 842.543 219.265 844.441 219.35C845.997 219.417 847.381 219.012 848.647 218.135C848.954 217.916 849.279 217.713 849.604 217.477C850.134 217.848 850.493 218.354 850.904 218.793C851.297 219.232 851.741 219.62 852.083 220.143C851.827 220.379 851.605 220.632 851.365 220.851C849.844 222.201 848.117 223.162 846.082 223.5C844.133 223.82 842.184 223.77 840.337 222.96C837.978 221.931 836.61 220.075 836.114 217.612C835.721 215.655 835.96 213.732 836.61 211.843C837.516 209.228 839.055 207.068 841.397 205.516C843.791 203.931 846.39 203.475 849.177 204.116C851.058 204.555 852.408 205.702 853.297 207.372C853.879 208.469 854.152 209.65 854.221 210.881C854.289 212.231 854.186 213.563 853.896 214.879C853.862 214.997 853.844 215.115 853.793 215.25C853.776 215.318 853.725 215.385 853.639 215.554L853.656 215.571ZM849.296 212.163C849.416 211.202 849.228 210.324 848.749 209.515C848.322 208.772 847.672 208.351 846.851 208.232C845.518 208.03 844.304 208.334 843.295 209.245C842.491 209.987 841.944 210.898 841.568 211.91C841.534 211.994 841.568 212.096 841.568 212.163C842.269 212.281 848.561 212.281 849.279 212.163H849.296Z" fill="#1172B7"/>
<path fill-rule="evenodd" clip-rule="evenodd" d="M1004.02 215.572C1003.69 215.572 1003.38 215.589 1003.08 215.589C999.485 215.589 995.894 215.589 992.304 215.589C991.996 215.589 991.688 215.555 991.346 215.69C991.346 215.842 991.312 215.977 991.329 216.128C991.38 216.601 991.483 217.073 991.722 217.512C992.338 218.659 993.346 219.232 994.629 219.334C996.236 219.469 997.672 219.047 998.972 218.136C999.279 217.917 999.604 217.714 999.895 217.495C1000.37 217.815 1001.93 219.502 1002.37 220.143C1001.86 220.784 1001.23 221.274 1000.56 221.746C999.348 222.606 997.997 223.231 996.51 223.484C994.424 223.838 992.372 223.77 990.423 222.843C988.645 221.999 987.465 220.616 986.798 218.811C986.302 217.495 986.217 216.145 986.353 214.762C986.576 212.4 987.413 210.241 988.85 208.318C990.098 206.647 991.654 205.382 993.603 204.572C995.108 203.948 996.681 203.78 998.271 203.915C998.664 203.948 999.04 204.016 999.399 204.1C1001.76 204.64 1003.25 206.124 1004.07 208.301C1004.39 209.161 1004.55 210.055 1004.58 210.966C1004.63 212.316 1004.56 213.648 1004.24 214.964C1004.19 215.15 1004.1 215.335 1004.02 215.555V215.572ZM991.876 212.231C992.304 212.231 992.628 212.248 992.953 212.248C994.902 212.248 996.852 212.248 998.784 212.248C999.057 212.248 999.348 212.299 999.656 212.113C999.775 211.101 999.536 210.19 998.955 209.33C998.51 208.672 997.877 208.318 997.108 208.216C995.672 208.031 994.424 208.419 993.398 209.448C992.748 210.123 992.286 210.899 991.944 211.759C991.91 211.86 991.893 211.995 991.859 212.231H991.876Z" fill="#1172B7"/>
<path fill-rule="evenodd" clip-rule="evenodd" d="M1035.8 215.572C1035.48 215.572 1035.17 215.589 1034.86 215.589C1031.24 215.589 1027.63 215.589 1024 215.589C1023.71 215.589 1023.39 215.504 1023.11 215.724C1023.06 217.95 1024.67 219.249 1026.53 219.334C1028.09 219.401 1029.47 218.996 1030.74 218.119C1031.05 217.9 1031.35 217.697 1031.71 217.461C1032.23 217.832 1032.59 218.338 1033 218.777C1033.39 219.199 1033.83 219.587 1034.16 220.093C1033.65 220.768 1033 221.257 1032.33 221.729C1031.1 222.59 1029.76 223.214 1028.28 223.467C1026.19 223.804 1024.14 223.754 1022.19 222.826C1020.43 221.999 1019.27 220.65 1018.6 218.845C1018.14 217.613 1017.98 216.331 1018.1 215.032C1018.36 212.029 1019.45 209.381 1021.56 207.171C1023.06 205.585 1024.87 204.454 1027.06 204.033C1028.62 203.729 1030.17 203.746 1031.7 204.201C1033.36 204.708 1034.57 205.737 1035.37 207.238C1035.97 208.351 1036.28 209.532 1036.35 210.798C1036.42 212.198 1036.35 213.581 1036.02 214.948C1035.97 215.133 1035.9 215.319 1035.82 215.555L1035.8 215.572ZM1023.69 212.164C1023.81 212.198 1023.92 212.232 1024.02 212.232C1026.4 212.232 1028.77 212.232 1031.15 212.232C1031.22 212.232 1031.29 212.181 1031.39 212.147C1031.56 211.186 1031.32 210.308 1030.84 209.482C1030.41 208.756 1029.75 208.335 1028.93 208.233C1027.54 208.031 1026.29 208.385 1025.27 209.397C1024.57 210.089 1024.07 210.899 1023.73 211.81C1023.68 211.928 1023.69 212.046 1023.68 212.181L1023.69 212.164Z" fill="#1172B7"/>
<path fill-rule="evenodd" clip-rule="evenodd" d="M959.407 215.57C959.065 215.57 958.774 215.587 958.466 215.587C954.876 215.587 951.285 215.587 947.695 215.587C947.387 215.587 947.079 215.536 946.771 215.671C946.635 215.958 946.771 216.211 946.806 216.481C947.079 218.151 948.327 219.197 950.037 219.332C951.627 219.467 953.081 219.062 954.38 218.134C954.688 217.915 955.013 217.712 955.337 217.476C955.868 217.831 956.209 218.337 956.62 218.775C957.013 219.197 957.458 219.585 957.8 220.091C957.287 220.749 956.671 221.221 956.021 221.694C954.79 222.588 953.423 223.212 951.901 223.465C949.849 223.803 947.797 223.752 945.882 222.858C943.933 221.964 942.702 220.445 942.07 218.421C941.693 217.189 941.625 215.941 941.762 214.659C941.967 212.685 942.565 210.846 943.625 209.159C944.925 207.084 946.686 205.499 948.977 204.554C950.499 203.913 952.089 203.744 953.713 203.913C954.568 203.997 955.389 204.183 956.158 204.554C957.646 205.279 958.689 206.443 959.321 207.945C959.8 209.092 959.954 210.29 959.971 211.504C959.988 212.668 959.886 213.832 959.612 214.98C959.578 215.165 959.492 215.351 959.407 215.57ZM947.302 212.129C947.541 212.28 947.78 212.247 948.003 212.247C948.823 212.247 949.644 212.247 950.448 212.247C951.764 212.247 953.064 212.247 954.363 212.247C954.585 212.247 954.825 212.297 955.013 212.095C955.132 211.099 954.978 210.34 954.517 209.547C954.089 208.788 953.423 208.35 952.568 208.232C951.149 208.029 949.883 208.4 948.857 209.429C948.174 210.104 947.712 210.914 947.37 211.791C947.319 211.892 947.336 212.027 947.319 212.145L947.302 212.129Z" fill="#1172B7"/>
<path fill-rule="evenodd" clip-rule="evenodd" d="M755.839 209.413C755.549 208.721 755.19 206.173 755.292 205.431C755.651 205.296 756.027 205.144 756.404 205.009C758.695 204.166 761.071 203.862 763.516 204.014C764.44 204.065 765.346 204.217 766.218 204.571C768.013 205.296 769.022 206.612 769.381 208.485C769.603 209.733 769.518 210.948 769.312 212.179C768.731 215.604 768.15 219.012 767.568 222.436C767.534 222.672 767.466 222.925 767.398 223.145C766.799 223.263 763.465 223.28 762.559 223.178C762.354 222.622 762.798 222.065 762.627 221.441C762.508 221.491 762.388 221.525 762.302 221.576C761.653 222.099 760.986 222.554 760.234 222.892C759.31 223.313 758.353 223.55 757.327 223.55C756.506 223.55 755.685 223.583 754.882 223.347C753.788 223.043 752.847 222.52 752.198 221.576C751.753 220.935 751.479 220.226 751.428 219.45C751.326 217.476 751.821 215.688 753.138 214.17C754.215 212.938 755.617 212.213 757.207 211.892C759.413 211.437 761.601 211.471 763.739 212.196C763.875 212.247 764.029 212.264 764.149 212.297C764.217 212.23 764.286 212.213 764.303 212.179C764.525 211.471 764.491 210.779 764.217 210.104C763.858 209.261 763.123 208.873 762.251 208.687C761.499 208.518 760.729 208.535 759.943 208.586C758.78 208.67 757.669 208.923 756.575 209.294C756.386 209.362 756.181 209.413 755.993 209.446C755.942 209.446 755.891 209.429 755.839 209.413ZM763.756 215.536C763.568 215.435 763.38 215.334 763.191 215.266C762.046 214.828 760.849 214.743 759.635 214.878C759.208 214.929 758.78 215.047 758.387 215.233C757.378 215.654 756.728 216.38 756.54 217.476C756.318 218.758 756.934 219.501 758.165 219.804C758.284 219.838 758.421 219.855 758.541 219.855C758.968 219.855 759.413 219.855 759.857 219.821C761.704 219.619 763.739 218.354 763.756 215.536Z" fill="#1172B7"/>
<path fill-rule="evenodd" clip-rule="evenodd" d="M915.209 212.348C915.465 211.707 915.448 211.15 915.329 210.56C915.209 210.054 914.97 209.615 914.559 209.278C914.166 208.94 913.687 208.755 913.174 208.654C912.388 208.502 911.601 208.519 910.798 208.586C909.635 208.671 908.524 208.957 907.429 209.312C907.241 209.379 907.053 209.413 906.797 209.48C906.506 208.822 906.506 208.131 906.403 207.456C906.301 206.815 906.147 206.174 906.181 205.482C906.626 205.178 907.122 205.077 907.6 204.909C909.806 204.116 912.08 203.863 914.422 203.981C915.414 204.031 916.406 204.2 917.346 204.605C919.039 205.364 920.031 206.646 920.321 208.468C920.543 209.733 920.441 210.999 920.253 212.247C919.757 215.267 919.227 218.286 918.714 221.306C918.628 221.795 918.543 222.301 918.44 222.791C918.423 222.909 918.372 223.027 918.321 223.128C917.688 223.229 914.269 223.246 913.499 223.128C913.311 222.571 913.756 222.015 913.585 221.458C913.431 221.39 913.328 221.492 913.226 221.559C912.798 221.88 912.371 222.217 911.926 222.487C910.798 223.179 909.55 223.533 908.199 223.533C907.327 223.533 906.455 223.533 905.617 223.263C903.77 222.706 902.522 221.306 902.42 219.417C902.266 216.768 903.189 214.541 905.48 213.006C906.557 212.281 907.788 211.893 909.071 211.758C910.524 211.606 911.994 211.572 913.431 211.876C913.858 211.96 914.269 212.112 914.696 212.213C914.833 212.247 914.987 212.281 915.209 212.331V212.348ZM914.73 215.57C914.046 215.149 913.345 215.014 912.644 214.896C911.67 214.761 910.695 214.777 909.755 215.081C909.515 215.165 909.276 215.267 909.054 215.385C908.267 215.79 907.771 216.448 907.566 217.308C907.293 218.455 907.686 219.501 909.156 219.754C910.302 219.957 911.464 219.838 912.525 219.299C914.029 218.523 914.747 217.257 914.747 215.553L914.73 215.57Z" fill="#1172B7"/>
<path fill-rule="evenodd" clip-rule="evenodd" d="M1070.63 212.331C1070.7 212.23 1070.75 212.179 1070.77 212.112C1070.92 211.487 1070.92 210.846 1070.7 210.239C1070.49 209.632 1070.08 209.21 1069.5 208.923C1069.04 208.704 1068.53 208.586 1068.01 208.552C1067 208.502 1066.01 208.535 1065.04 208.755C1064.32 208.923 1063.6 209.143 1062.88 209.328C1062.7 209.379 1062.49 209.429 1062.29 209.48C1062.23 209.362 1062.18 209.261 1062.17 209.176C1061.99 208.029 1061.82 206.865 1061.65 205.718C1061.65 205.65 1061.67 205.583 1061.7 205.465C1062.29 205.178 1062.92 204.976 1063.55 204.773C1065.6 204.098 1067.71 203.896 1069.86 203.997C1070.9 204.048 1071.95 204.233 1072.92 204.672C1074.51 205.397 1075.45 206.612 1075.78 208.282C1076.05 209.649 1075.95 211.015 1075.72 212.365C1075.21 215.435 1074.7 218.505 1074.19 221.576C1074.1 222.099 1073.98 222.622 1073.88 223.145C1073.33 223.296 1072.78 223.212 1072.25 223.229C1071.72 223.246 1071.18 223.229 1070.63 223.229C1070.1 223.229 1069.57 223.263 1069.06 223.212C1068.92 222.875 1069 222.605 1069.06 222.318C1069.11 222.048 1069.19 221.778 1069.16 221.525C1068.95 221.373 1068.83 221.525 1068.73 221.593C1068.06 222.149 1067.33 222.622 1066.53 222.976C1065.69 223.33 1064.83 223.533 1063.91 223.549C1063.04 223.549 1062.17 223.583 1061.31 223.347C1059.81 222.925 1058.71 222.082 1058.15 220.597C1057.89 219.889 1057.84 219.163 1057.91 218.421C1058.04 216.498 1058.75 214.845 1060.25 213.546C1061.26 212.685 1062.46 212.129 1063.76 211.909C1065.89 211.521 1068.05 211.504 1070.13 212.196C1070.3 212.247 1070.47 212.28 1070.65 212.314L1070.63 212.331ZM1070.22 215.553C1069.93 215.435 1069.65 215.283 1069.36 215.199C1068.97 215.081 1068.58 214.98 1068.17 214.929C1067.11 214.794 1066.06 214.811 1065.05 215.182C1063.93 215.587 1063.23 216.346 1062.99 217.527C1062.8 218.505 1063.21 219.298 1064.13 219.653C1064.37 219.754 1064.63 219.821 1064.87 219.838C1065.38 219.855 1065.89 219.872 1066.39 219.821C1068.66 219.568 1070.13 217.932 1070.18 215.57L1070.22 215.553Z" fill="#1172B7"/>
<path fill-rule="evenodd" clip-rule="evenodd" d="M888.177 223.213H883.287C883.082 223.044 883.15 222.859 883.167 222.69C883.441 221.07 883.697 219.451 883.988 217.831C884.279 216.06 884.604 214.289 884.894 212.517C885.322 209.919 885.766 207.338 886.194 204.74C886.211 204.605 886.262 204.487 886.313 204.352C886.433 204.319 886.553 204.268 886.672 204.268C888.109 204.268 889.545 204.268 890.981 204.268C891.084 204.268 891.186 204.302 891.306 204.319C891.46 205.095 890.981 205.837 891.118 206.68C891.272 206.579 891.391 206.529 891.477 206.444C891.836 206.124 892.178 205.769 892.554 205.466C894.264 204.065 896.213 203.576 898.384 203.998C900.265 204.352 901.565 205.483 901.975 207.743C902.18 208.806 902.095 209.869 901.924 210.915C901.496 213.496 901.035 216.06 900.607 218.624C900.385 219.974 900.163 221.323 899.94 222.656C899.906 222.825 899.855 222.994 899.803 223.179C899.65 223.196 899.53 223.23 899.41 223.23C897.923 223.23 896.435 223.23 894.948 223.213C894.914 223.213 894.862 223.179 894.811 223.145C894.725 222.825 894.811 222.504 894.879 222.184C895.17 220.463 895.461 218.742 895.768 217.022C896.042 215.419 896.298 213.833 896.572 212.231C896.675 211.606 896.64 210.965 896.435 210.358C896.213 209.633 895.734 209.11 894.965 208.924C893.426 208.553 891.921 208.924 890.93 210.274C890.502 210.864 890.246 211.522 890.109 212.214C889.938 213.074 889.784 213.951 889.647 214.828C889.22 217.376 888.792 219.923 888.365 222.471C888.314 222.707 888.245 222.96 888.16 223.23L888.177 223.213Z" fill="#1172B7"/>
<path fill-rule="evenodd" clip-rule="evenodd" d="M818.999 204.249C820.572 204.249 822.077 204.249 823.581 204.249C823.701 204.249 823.821 204.282 823.975 204.316C823.975 204.535 823.992 204.738 823.975 204.923C823.701 206.526 823.427 208.112 823.154 209.714C822.863 211.435 822.555 213.156 822.282 214.877C822.214 215.349 822.179 215.838 822.214 216.311C822.282 217.542 823.017 218.639 824.693 218.689C826.385 218.74 827.685 217.879 828.352 216.294C828.574 215.737 828.728 215.13 828.83 214.539C829.207 212.414 829.549 210.305 829.908 208.179C830.13 206.914 830.352 205.632 830.574 204.35C830.711 204.316 830.831 204.249 830.951 204.249C832.421 204.249 833.874 204.249 835.345 204.249C835.447 204.249 835.533 204.299 835.652 204.316C835.652 204.434 835.652 204.535 835.652 204.62C834.609 210.777 833.567 216.935 832.524 223.126C832.37 223.16 832.25 223.194 832.13 223.194C830.728 223.194 829.309 223.194 827.907 223.194C827.77 223.194 827.651 223.177 827.497 223.16C827.377 222.35 827.719 221.608 827.719 220.764C827.565 220.832 827.445 220.865 827.377 220.933C826.95 221.304 826.556 221.692 826.112 222.046C825.24 222.755 824.265 223.261 823.154 223.447C821.872 223.666 820.606 223.632 819.375 223.126C817.99 222.552 817.221 221.456 816.879 220.056C816.64 219.06 816.64 218.048 816.794 217.036C817.084 215.214 817.392 213.392 817.7 211.57C818.076 209.326 818.469 207.066 818.845 204.822C818.879 204.653 818.948 204.485 819.016 204.215L818.999 204.249Z" fill="#1172B7"/>
<path fill-rule="evenodd" clip-rule="evenodd" d="M879.953 223.163C879.252 223.264 875.661 223.247 874.977 223.163C874.858 222.403 875.234 221.644 875.2 220.801C875.012 220.902 874.875 220.97 874.772 221.054C874.242 221.492 873.746 221.965 873.199 222.387C872.481 222.926 871.66 223.298 870.771 223.466C869.455 223.702 868.155 223.686 866.924 223.196C865.745 222.707 864.975 221.813 864.565 220.632C864.172 219.502 864.103 218.355 864.291 217.191C864.616 215.166 864.975 213.142 865.317 211.117C865.608 209.43 865.881 207.727 866.172 206.023C866.275 205.466 866.377 204.926 866.48 204.37C866.634 204.336 866.753 204.285 866.89 204.285C868.309 204.285 869.711 204.285 871.13 204.285C871.25 204.285 871.37 204.319 871.524 204.353C871.524 204.572 871.558 204.774 871.524 204.96C871.13 207.254 870.737 209.549 870.344 211.843C870.139 213.007 869.968 214.188 869.797 215.369C869.745 215.79 869.745 216.229 869.797 216.651C869.951 217.832 870.72 218.591 871.917 218.709C873.49 218.844 874.721 218.287 875.559 216.938C875.901 216.398 876.123 215.807 876.243 215.166C876.414 214.171 876.602 213.176 876.773 212.18C877.2 209.684 877.61 207.187 878.038 204.69C878.038 204.589 878.089 204.488 878.123 204.37C878.243 204.353 878.363 204.285 878.482 204.285C879.953 204.285 881.406 204.285 882.877 204.285C882.979 204.285 883.065 204.336 883.167 204.353C883.167 204.437 883.219 204.521 883.201 204.589C882.193 210.628 881.167 216.668 880.124 222.707C880.09 222.893 880.038 223.045 879.987 223.213L879.953 223.163Z" fill="#1172B7"/>
<path fill-rule="evenodd" clip-rule="evenodd" d="M769.295 220.716C770.236 219.518 771.125 218.405 772.065 217.241C772.339 217.443 772.561 217.612 772.783 217.781C773.912 218.624 775.143 219.198 776.545 219.417C777.263 219.535 777.981 219.535 778.682 219.333C779.246 219.147 779.674 218.81 779.879 218.236C780.05 217.696 779.947 217.292 779.503 216.954C779.212 216.752 778.887 216.583 778.562 216.448C777.793 216.144 777.024 215.891 776.237 215.638C775.468 215.368 774.698 215.099 773.997 214.66C773.382 214.272 772.869 213.8 772.493 213.175C772.082 212.501 771.894 211.775 771.928 210.999C772.031 208.401 773.177 206.394 775.416 205.01C776.357 204.42 777.417 204.099 778.528 203.981C780.819 203.728 782.974 204.15 784.974 205.263C785.316 205.449 785.624 205.668 785.949 205.888C786.017 205.921 786.051 206.006 786.12 206.09C785.812 206.748 785.333 207.305 784.923 207.912C784.513 208.502 784.136 209.143 783.572 209.7C783.316 209.565 783.076 209.43 782.837 209.295C782.17 208.907 781.469 208.604 780.751 208.334C780.016 208.064 779.263 207.996 778.477 208.03C777.913 208.064 777.434 208.283 777.075 208.705C776.63 209.228 776.665 209.869 777.195 210.307C777.485 210.56 777.827 210.763 778.169 210.915C778.853 211.218 779.554 211.455 780.238 211.725C781.025 212.028 781.811 212.332 782.546 212.77C783.076 213.074 783.538 213.496 783.931 213.951C784.444 214.576 784.769 215.284 784.786 216.111C784.803 218.506 783.965 220.514 782.016 221.998C781.11 222.69 780.067 223.112 778.939 223.331C776.323 223.82 773.826 223.533 771.484 222.285C770.715 221.88 769.996 221.391 769.33 220.682L769.295 220.716Z" fill="#1172B7"/>
<path fill-rule="evenodd" clip-rule="evenodd" d="M944.327 197.57C944.104 198.937 943.882 200.219 943.677 201.484C943.66 201.636 943.574 201.754 943.523 201.94C943.25 201.872 942.993 201.805 942.754 201.737C942.224 201.585 941.711 201.518 941.147 201.552C940.309 201.602 939.676 201.99 939.334 202.749C939.112 203.239 939.009 203.762 938.992 204.335C939.197 204.369 939.351 204.436 939.522 204.436C940.445 204.436 941.369 204.436 942.292 204.436C942.531 204.436 942.805 204.386 943.079 204.554C943.079 204.656 943.096 204.774 943.079 204.892C942.839 206.157 942.685 207.422 942.378 208.721C942.172 208.738 942.001 208.789 941.83 208.789C940.924 208.789 940.035 208.789 939.129 208.789C938.873 208.789 938.616 208.789 938.428 208.789C938.171 208.974 938.171 209.177 938.154 209.379C937.761 211.64 937.368 213.917 936.992 216.195C936.616 218.388 936.239 220.598 935.863 222.791C935.846 222.909 935.812 223.027 935.761 223.196C935.196 223.28 934.615 223.229 934.068 223.229C933.538 223.229 932.991 223.229 932.461 223.229C931.897 223.229 931.332 223.229 930.734 223.229C930.717 222.504 930.922 221.846 931.007 221.171C931.093 220.48 931.23 219.771 931.349 219.079C931.452 218.405 931.572 217.73 931.691 217.055C931.811 216.38 931.931 215.705 932.033 215.031C932.153 214.356 932.273 213.681 932.375 213.006C932.495 212.315 932.615 211.606 932.717 210.914C932.82 210.24 932.991 209.582 933.008 208.89C932.341 208.654 931.691 208.89 931.042 208.721C931.007 208.62 930.973 208.519 930.99 208.434C931.196 207.136 931.418 205.853 931.657 204.504C931.845 204.47 931.999 204.419 932.17 204.403C932.461 204.403 932.734 204.403 933.008 204.403C933.812 204.403 933.812 204.403 933.965 203.643C934.085 203.019 934.188 202.395 934.359 201.788C934.615 200.826 935.043 199.932 935.692 199.156C936.581 198.059 937.761 197.418 939.146 197.182C940.565 196.946 942.018 196.997 943.421 197.317C943.694 197.368 943.951 197.469 944.31 197.587L944.327 197.57Z" fill="#1172B7"/>
<path fill-rule="evenodd" clip-rule="evenodd" d="M1006.92 204.285C1007.66 204.269 1008.31 204.235 1008.96 204.218C1009.16 203.897 1009.2 203.577 1009.25 203.239C1009.42 202.21 1009.59 201.198 1009.76 200.169C1009.79 199.95 1009.86 199.731 1009.91 199.477C1010.05 199.427 1010.19 199.359 1010.34 199.359C1011.74 199.359 1013.16 199.359 1014.58 199.359C1014.7 199.359 1014.82 199.41 1014.92 199.427C1015.06 199.68 1014.97 199.916 1014.92 200.119C1014.72 201.266 1014.51 202.413 1014.33 203.56C1014.29 203.729 1014.31 203.914 1014.31 204.049C1014.5 204.285 1014.7 204.252 1014.91 204.252C1015.83 204.252 1016.75 204.252 1017.68 204.252C1017.93 204.252 1018.19 204.201 1018.43 204.37C1018.43 204.437 1018.48 204.522 1018.46 204.589C1018.27 205.821 1018.07 207.035 1017.86 208.267C1017.85 208.402 1017.8 208.554 1017.74 208.739C1017.51 208.739 1017.28 208.79 1017.06 208.79C1016.14 208.79 1015.21 208.79 1014.29 208.79C1014.05 208.79 1013.78 208.739 1013.52 208.908C1013.32 209.262 1013.32 209.718 1013.25 210.122C1012.87 212.214 1012.53 214.306 1012.19 216.415C1012.14 216.769 1012.07 217.123 1012.07 217.461C1012.05 218.355 1012.5 218.827 1013.42 218.861C1014.1 218.895 1014.74 218.726 1015.37 218.524C1015.59 218.456 1015.8 218.389 1016.05 218.287C1016.12 218.709 1015.98 219.08 1015.95 219.451C1015.83 220.278 1015.64 221.088 1015.54 221.914C1015.49 222.319 1015.3 222.556 1014.94 222.724C1013.15 223.568 1011.26 223.77 1009.32 223.365C1007.59 222.994 1006.9 221.78 1006.7 220.362C1006.58 219.57 1006.67 218.743 1006.79 217.95C1007.28 215.048 1007.78 212.164 1008.26 209.262C1008.27 209.144 1008.26 209.026 1008.26 208.874C1007.61 208.655 1006.9 208.908 1006.24 208.705C1006.24 208.57 1006.19 208.435 1006.2 208.317C1006.46 207.001 1006.6 205.669 1006.94 204.285H1006.92Z" fill="#1172B7"/>
<path fill-rule="evenodd" clip-rule="evenodd" d="M1040.23 204.284C1040.47 204.284 1040.64 204.25 1040.83 204.25C1042.21 204.25 1043.6 204.25 1044.98 204.25C1045.05 204.25 1045.12 204.3 1045.24 204.334C1045.19 205.38 1044.88 206.409 1044.81 207.438C1045.02 207.54 1045.08 207.438 1045.15 207.32C1045.46 206.915 1045.75 206.494 1046.09 206.122C1046.47 205.718 1046.88 205.33 1047.31 204.975C1048.35 204.132 1049.56 203.845 1050.88 203.828C1050.98 203.828 1051.07 203.879 1051.22 203.896C1051.15 204.368 1051.09 204.823 1051 205.262C1050.74 206.629 1050.61 207.995 1050.25 209.378C1050.03 209.395 1049.85 209.429 1049.68 209.429C1047.02 209.598 1045.17 210.93 1044.09 213.326C1043.65 214.321 1043.39 215.384 1043.22 216.464C1042.88 218.437 1042.55 220.411 1042.21 222.385C1042.16 222.655 1042.16 222.942 1041.99 223.161C1041.27 223.245 1037.7 223.245 1037.03 223.161C1037.03 223.009 1037 222.824 1037.03 222.672C1037.56 219.635 1038.09 216.582 1038.6 213.545C1038.9 211.875 1039.15 210.188 1039.43 208.518C1039.63 207.253 1039.85 205.971 1040.07 204.705C1040.09 204.587 1040.16 204.469 1040.21 204.3L1040.23 204.284Z" fill="#1172B7"/>
<path fill-rule="evenodd" clip-rule="evenodd" d="M968.862 204.335C968.862 205.432 968.435 206.427 968.452 207.473C968.657 207.54 968.725 207.405 968.794 207.321C969.17 206.849 969.512 206.343 969.922 205.887C970.726 205.01 971.666 204.318 972.863 204.031C973.479 203.897 974.111 203.745 974.795 203.863C974.812 204.487 974.641 205.077 974.556 205.668C974.453 206.292 974.351 206.916 974.248 207.54C974.145 208.131 974.094 208.738 973.889 209.362C973.718 209.396 973.547 209.43 973.376 209.447C970.709 209.599 968.862 210.898 967.768 213.293C967.289 214.305 967.05 215.402 966.862 216.498C966.537 218.489 966.195 220.497 965.87 222.487C965.836 222.706 965.75 222.926 965.699 223.162C965.289 223.297 964.878 223.229 964.468 223.229C964.041 223.229 963.596 223.229 963.152 223.229C962.741 223.229 962.331 223.229 961.92 223.229C961.527 223.229 961.117 223.263 960.724 223.213C960.689 223.078 960.655 223.01 960.655 222.943C961.681 216.836 962.707 210.712 963.733 204.605C963.733 204.504 963.818 204.436 963.853 204.352C964.417 204.234 966.981 204.183 968.401 204.251C968.537 204.251 968.691 204.318 968.862 204.352V204.335Z" fill="#1172B7"/>
<path fill-rule="evenodd" clip-rule="evenodd" d="M981.104 207.556C981.224 207.404 981.343 207.252 981.463 207.1C982.01 206.358 982.609 205.666 983.327 205.093C984.438 204.199 985.703 203.827 987.105 203.844C987.157 203.844 987.208 203.878 987.31 203.912C987.31 204.03 987.328 204.182 987.31 204.317C987.071 205.835 986.815 207.37 986.558 208.888C986.524 209.057 986.456 209.226 986.387 209.395C985.96 209.445 985.549 209.462 985.156 209.529C982.95 209.85 981.412 211.082 980.42 213.005C979.856 214.135 979.582 215.333 979.377 216.564C979.052 218.538 978.727 220.512 978.385 222.486C978.351 222.705 978.283 222.924 978.214 223.16C977.65 223.312 977.069 223.211 976.522 223.228C975.975 223.245 975.444 223.245 974.897 223.228C974.333 223.228 973.769 223.312 973.239 223.177C973.119 222.89 973.188 222.654 973.239 222.401C973.735 219.5 974.231 216.615 974.726 213.73C975.12 211.436 975.496 209.141 975.889 206.83C976.026 206.021 976.18 205.194 976.334 204.35C976.505 204.317 976.658 204.249 976.795 204.249C978.18 204.249 979.565 204.249 980.95 204.249C981.104 204.249 981.241 204.3 981.429 204.317C981.395 205.43 980.984 206.442 981.138 207.556H981.104Z" fill="#1172B7"/>
<path fill-rule="evenodd" clip-rule="evenodd" d="M1054.86 223.161C1053.99 223.279 1050.35 223.262 1049.79 223.161C1049.79 223.093 1049.75 223.009 1049.75 222.941C1050.79 216.801 1051.82 210.677 1052.88 204.536C1052.88 204.469 1052.95 204.401 1052.98 204.334C1053.55 204.233 1056.1 204.182 1057.51 204.249C1057.67 204.249 1057.81 204.3 1057.96 204.334C1058.06 204.907 1057.87 205.413 1057.79 205.936C1057.33 208.787 1056.81 211.622 1056.33 214.473C1055.94 216.818 1055.53 219.162 1055.14 221.491C1055.05 222.047 1054.97 222.587 1054.86 223.161Z" fill="#1172B7"/>
<path fill-rule="evenodd" clip-rule="evenodd" d="M714.634 223.229C714.463 222.841 714.582 222.588 714.651 222.318C715.318 219.821 716.001 217.325 716.668 214.845C717.335 212.398 718.002 209.969 718.669 207.523C718.72 207.304 718.806 207.101 718.891 206.865C719.797 206.831 720.669 206.831 721.575 206.865C721.592 207.068 721.644 207.236 721.627 207.405C721.507 209.278 721.37 211.15 721.251 213.006C721.182 213.967 721.114 214.929 721.045 215.891C720.926 217.864 720.806 219.821 720.669 221.795C720.635 222.251 720.567 222.689 720.515 223.161C719.831 223.28 719.199 223.212 718.566 223.229C717.899 223.229 717.233 223.229 716.566 223.229H714.634Z" fill="#1172B7"/>
<path fill-rule="evenodd" clip-rule="evenodd" d="M1081.23 198.464C1081.88 198.345 1086.43 198.345 1087.09 198.464C1087.09 198.632 1087.09 198.801 1087.06 198.953C1086.77 200.1 1086.46 201.247 1086.15 202.394C1085.59 204.452 1085.03 206.494 1084.48 208.552C1083.97 210.441 1083.45 212.314 1082.94 214.186C1082.91 214.338 1082.84 214.473 1082.79 214.608C1082.2 214.743 1080.85 214.76 1080.1 214.642C1079.93 214.439 1080.02 214.203 1080.02 213.984C1080.1 212.516 1080.2 211.049 1080.29 209.598C1080.48 206.899 1080.65 204.199 1080.82 201.5C1080.87 200.707 1080.92 199.931 1080.99 199.155C1080.99 198.919 1081.02 198.649 1081.21 198.447L1081.23 198.464Z" fill="#1172B7"/>
<path fill-rule="evenodd" clip-rule="evenodd" d="M1077.35 223.162C1077.31 222.487 1077.83 219.215 1078.22 217.713C1078.31 217.696 1078.43 217.629 1078.55 217.629H1083.23C1083.33 217.629 1083.44 217.663 1083.55 217.696C1083.55 217.848 1083.57 218 1083.55 218.135C1083.32 219.603 1083.08 221.07 1082.82 222.555C1082.79 222.774 1082.7 222.977 1082.65 223.179C1081.93 223.263 1078.05 223.263 1077.35 223.179V223.162Z" fill="#1172B7"/>
<path fill-rule="evenodd" clip-rule="evenodd" d="M724.311 198.448C724.345 198.549 724.379 198.616 724.379 198.684C724.106 200.337 723.832 201.973 723.559 203.627C723.559 203.728 723.473 203.812 723.439 203.88C722.858 203.998 720.122 204.048 718.583 203.964C718.446 203.964 718.292 203.913 718.139 203.88C718.07 203.306 718.224 202.8 718.327 202.277C718.549 201.012 718.703 199.73 719.011 198.448C719.626 198.313 720.207 198.397 720.806 198.38C721.387 198.363 721.986 198.363 722.567 198.38C723.148 198.38 723.747 198.313 724.328 198.448H724.311Z" fill="#1172B7"/>
<path fill-rule="evenodd" clip-rule="evenodd" d="M760.883 201.939C760.986 201.77 761.02 201.669 761.088 201.568C762.422 199.746 765.192 196.305 765.654 195.883C766.218 196.035 768.868 197.317 769.603 197.789C769.535 197.873 769.466 197.992 769.381 198.059C767.962 199.257 766.543 200.438 765.124 201.635C764.833 201.889 764.542 201.99 764.149 201.99C763.226 201.973 762.302 201.99 761.379 201.99C761.242 201.99 761.088 201.973 760.866 201.956L760.883 201.939Z" fill="#1172B7"/>
<path fill-rule="evenodd" clip-rule="evenodd" d="M1053.82 201.956C1054.27 201.214 1058.13 196.305 1058.57 195.883C1059.29 196.085 1062.08 197.452 1062.54 197.84C1062.46 197.924 1062.37 198.025 1062.27 198.11C1060.88 199.274 1059.5 200.421 1058.11 201.602C1057.75 201.905 1057.39 202.04 1056.93 202.023C1056.1 201.99 1055.24 202.023 1054.4 202.023C1054.23 202.023 1054.06 202.007 1053.8 201.973L1053.82 201.956Z" fill="#1172B7"/>
</g>
<defs>
<clipPath id="clip0_153_2">
<rect width="605.692" height="162.154" fill="white" transform="translate(481.692 66.7617)"/>
</clipPath>
</defs>
</svg>
